<?xml version="1.0" encoding="UTF-8" standalone="no"?>
<!DOCTYPE svg PUBLIC "-//W3C//DTD SVG 1.1//EN" "http://www.w3.org/Graphics/SVG/1.1/DTD/svg11.dtd">
<svg width="100%" height="100%" viewBox="0 0 800 600" version="1.1" xmlns="http://www.w3.org/2000/svg" xmlns:xlink="http://www.w3.org/1999/xlink" xml:space="preserve" xmlns:serif="http://www.serif.com/" style="fill-rule:evenodd;clip-rule:evenodd;stroke-linecap:round;stroke-linejoin:round;stroke-miterlimit:1.5;">
    <g transform="matrix(1.11791,0,0,1.11791,-286.303,-48.2279)">
        <g transform="matrix(0.984294,0,0,0.984294,365.362,192.79)">
            <path d="M133.981,113.266C117.559,113.266 104.246,126.579 104.246,143.001" style="fill:none;stroke:black;stroke-width:18.18px;"/>
        </g>
        <g transform="matrix(9.752e-17,-1.59262,1.59262,9.752e-17,287.581,546.926)">
            <path d="M133.981,113.266C117.559,113.266 104.246,126.579 104.246,143.001" style="fill:none;stroke:black;stroke-width:11.23px;"/>
        </g>
        <g transform="matrix(-2.57692,-3.15581e-16,3.15581e-16,-2.57692,860.585,672.778)">
            <path d="M133.981,113.266C117.559,113.266 104.246,126.579 104.246,143.001" style="fill:none;stroke:black;stroke-width:6.94px;"/>
        </g>
        <g transform="matrix(-7.65932e-16,4.16954,-4.16954,-7.65932e-16,1064.22,-254.362)">
            <path d="M133.981,113.266C117.559,113.266 104.246,126.579 104.246,143.001" style="fill:none;stroke:black;stroke-width:4.29px;"/>
        </g>
        <g transform="matrix(6.74645,1.6524e-15,-1.6524e-15,6.74645,-435.925,-583.849)">
            <path d="M133.981,113.266C117.559,113.266 104.246,126.579 104.246,143.001" style="fill:none;stroke:black;stroke-width:2.65px;"/>
        </g>
    </g>
    <g transform="matrix(1.11791,0,0,1.11791,-293.483,102.547)">
        <g transform="matrix(-0.984294,1.20541e-16,-1.20541e-16,-0.984294,865.815,252.937)">
            <path d="M133.981,113.266C117.559,113.266 104.246,126.579 104.246,143.001" style="fill:none;stroke:black;stroke-width:18.18px;"/>
        </g>
        <g transform="matrix(9.752e-17,1.59262,-1.59262,9.752e-17,943.596,-101.199)">
            <path d="M133.981,113.266C117.559,113.266 104.246,126.579 104.246,143.001" style="fill:none;stroke:black;stroke-width:11.23px;"/>
        </g>
        <g transform="matrix(2.57692,-4.93038e-32,4.93038e-32,2.57692,370.592,-227.052)">
            <path d="M133.981,113.266C117.559,113.266 104.246,126.579 104.246,143.001" style="fill:none;stroke:black;stroke-width:6.94px;"/>
        </g>
        <g transform="matrix(2.55311e-16,-4.16954,4.16954,2.55311e-16,166.958,700.088)">
            <path d="M133.981,113.266C117.559,113.266 104.246,126.579 104.246,143.001" style="fill:none;stroke:black;stroke-width:4.29px;"/>
        </g>
        <g transform="matrix(-6.74645,-8.26202e-16,8.26202e-16,-6.74645,1667.1,1029.58)">
            <path d="M133.981,113.266C117.559,113.266 104.246,126.579 104.246,143.001" style="fill:none;stroke:black;stroke-width:2.65px;"/>
        </g>
    </g>
</svg>
