<?xml version="1.0" encoding="UTF-8" standalone="no"?>
<!DOCTYPE svg PUBLIC "-//W3C//DTD SVG 1.1//EN" "http://www.w3.org/Graphics/SVG/1.1/DTD/svg11.dtd">
<svg width="100%" height="100%" viewBox="0 0 800 600" version="1.1" xmlns="http://www.w3.org/2000/svg" xmlns:xlink="http://www.w3.org/1999/xlink" xml:space="preserve" xmlns:serif="http://www.serif.com/" style="fill-rule:evenodd;clip-rule:evenodd;stroke-linejoin:round;stroke-miterlimit:2;">
    <g transform="matrix(0.475512,0,0,0.475512,41.8372,246.488)">
        <path d="M305.786,221.607L331.743,273.521L279.83,273.521L305.786,221.607Z" style="fill:white;"/>
    </g>
    <g transform="matrix(-0.475512,-5.82334e-17,5.82334e-17,-0.475512,332.647,487.738)">
        <path d="M305.786,221.607L331.743,273.521L279.83,273.521L305.786,221.607Z" style="fill:white;"/>
    </g>
    <g transform="matrix(1.04449,0,0,1.04449,21.3667,31.9011)">
        <path d="M305.786,221.607L331.743,273.521L279.83,273.521L305.786,221.607Z" style="fill:white;"/>
    </g>
    <g transform="matrix(-1.04449,-1.27914e-16,1.27914e-16,-1.04449,660.151,561.823)">
        <path d="M305.786,221.607L331.743,273.521L279.83,273.521L305.786,221.607Z" style="fill:white;"/>
    </g>
    <g transform="matrix(0.475512,0,0,0.475512,87.5232,140.259)">
        <path d="M305.786,221.607L331.743,273.521L279.83,273.521L305.786,221.607Z" style="fill:white;"/>
    </g>
    <g transform="matrix(-0.475512,-5.82334e-17,5.82334e-17,-0.475512,378.333,381.509)">
        <path d="M305.786,221.607L331.743,273.521L279.83,273.521L305.786,221.607Z" style="fill:white;"/>
    </g>
    <g transform="matrix(0.475512,0,0,0.475512,382.847,169.855)">
        <path d="M305.786,221.607L331.743,273.521L279.83,273.521L305.786,221.607Z" style="fill:white;"/>
    </g>
    <g transform="matrix(-0.475512,-5.82334e-17,5.82334e-17,-0.475512,673.657,411.105)">
        <path d="M305.786,221.607L331.743,273.521L279.83,273.521L305.786,221.607Z" style="fill:white;"/>
    </g>
    <g transform="matrix(0.475512,0,0,0.475512,348.171,22.2356)">
        <path d="M305.786,221.607L331.743,273.521L279.83,273.521L305.786,221.607Z" style="fill:white;"/>
    </g>
    <g transform="matrix(-0.475512,-5.82334e-17,5.82334e-17,-0.475512,638.981,263.486)">
        <path d="M305.786,221.607L331.743,273.521L279.83,273.521L305.786,221.607Z" style="fill:white;"/>
    </g>
</svg>
